<svg xmlns="http://www.w3.org/2000/svg" width="95" height="87.083" viewBox="0 0 95 87.083"><path d="M55.417,48.5H39.583V32.667H55.417Zm23.75-15.833H63.333V48.5H79.167Zm-47.5,23.75H15.833V72.25H31.667Zm23.75,0H39.583V72.25H55.417Zm-23.75-23.75H15.833V48.5H31.667ZM95,1V88.083H0V1ZM65.427,80.008c6.4-3.416,17.219-14.139,21.656-20.021v-.071C83.275,62.52,75.3,64.694,69.354,63.3,70.007,67.607,68.812,76.588,65.427,80.008Zm-57.511.158H53.79c13.173,0,9.227-23.366,9.227-23.366,8.471,2.094,24.067,1.1,24.067-7.687V24.75H7.917V80.167Z" transform="translate(0 -1)" fill="#98b54d"/></svg>