<svg xmlns="http://www.w3.org/2000/svg" width="100" height="100" viewBox="0 0 100 100"><path d="M47.258,45.383c1.717-2.142,3.021-3.779,3.7-4.654a2.715,2.715,0,0,0,.367-2.263c-.942-3.483-2.533-9.725,3.5-16.038C61.746,15.175,74.633,4.038,79.262,0L100,16.2C97.283,21.6,89.679,36.858,84.413,45.346c-4.8,7.742-11.358,7.554-15.092,7.438a2.643,2.643,0,0,0-2.071.954c-1.033,1.321-3.529,4.433-6.729,8.408L77.067,83.188a10.428,10.428,0,0,1-1.792,14.621A10.692,10.692,0,0,1,68.763,100a10.142,10.142,0,0,1-8.117-3.988L47.008,78.9C40.45,87.021,34.679,94.292,33.521,95.779A10.587,10.587,0,0,1,25.233,100a10.026,10.026,0,0,1-6.225-2.213,10.168,10.168,0,0,1-1.9-14.833c1.667-2.138,9.013-11.354,16.55-20.692l-2.592-3.233L22.7,65.563C14.725,54.613,0,25.608,0,10.142,0-.4,7.392,0,7.654,0a7.748,7.748,0,0,1,6.079,3.013C15.5,5.242,31.683,25.7,47.258,45.383M32.5,47.338,67.213,90.883a2.107,2.107,0,0,0,2.925.362l0,0a2.086,2.086,0,0,0,.358-2.925S14.588,17.583,8.171,9.425c-.292,5.942,4.938,23.617,16.675,43.892L32.5,47.338Zm6.487,21.571L23.933,87.746c-.721.925-1.354,2.258.012,3.325s2.5.225,3.271-.758L41.658,72.233ZM55.2,55.413l5.938-7.379c1.5-1.921,3.175-3.567,7.379-3.592,3.158-.017,6.146.821,8.825-3.488C82.017,33.4,90.021,18.983,90.021,18.983l-1.65-1.292L75.65,34.192,72.908,32.05,85.329,15.317l-1.717-1.342L70.333,30.033l-2.687-2.1L80.471,11.525,78.908,10.3S66.963,21.779,60.85,28.183c-3.371,3.529-1.871,6.3-1.158,9.325a8.124,8.124,0,0,1-1.833,7.946l-5.317,6.608,2.654,3.35Z" fill="#0a8f72" fill-rule="evenodd"/></svg>
