<svg xmlns="http://www.w3.org/2000/svg" width="98" height="98" viewBox="0 0 98 98"><path d="M71.426,63.014a12.829,12.829,0,0,1-5.116-1.058l1.907-4.418a8.1,8.1,0,0,0,5.868.212l1.584,4.541a12.69,12.69,0,0,1-4.243.723Zm-44.6-.09a12.939,12.939,0,0,1-4.463-.8l1.662-4.512a8.135,8.135,0,0,0,5.88-.106l1.825,4.451A12.834,12.834,0,0,1,26.828,62.924Zm35.4-3.2-6.774-3.859,2.381-4.181,6.778,3.859Zm-26.358-.082L33.4,55.517l6.693-4.006,2.47,4.128-6.693,4.006Zm16-5.749A8.071,8.071,0,0,0,46,53.757l-1.637-4.524a12.911,12.911,0,0,1,9.359.229L51.871,53.9Zm29.919-.666a3.953,3.953,0,1,0,3.957,3.953A3.953,3.953,0,0,0,81.789,53.23Zm-65.582,0a3.953,3.953,0,1,0,3.957,3.953A3.954,3.954,0,0,0,16.207,53.23Zm73.627-3.4V77.122L73.5,87.245V69.417H69.417V86.326L53.083,74.545V61.25H44.917V74.541L28.583,86.322V69.417H24.5V87.24L8.167,77.118V22.834L24.5,32.957V49h4.083V32.965L44.917,21.18V40.833h8.167V21.18l6.439,4.647a23.113,23.113,0,0,1-2.356-10.306l.078-1.409L49,8.167,26.358,24.5,0,8.167v73.5L26.358,98,49,81.667,71.642,98,98,81.667V34.226l-.159.192c-3.393,4.01-6.591,7.832-8.007,15.415ZM98,15.521C98,6.95,90.242,0,81.667,0S65.333,6.95,65.333,15.521c0,12.744,13.018,14.092,16.333,33.479C84.982,29.612,98,28.265,98,15.521Zm-22.458.813a6.125,6.125,0,1,1,6.125,6.125A6.125,6.125,0,0,1,75.542,16.333ZM73.3,49a26.841,26.841,0,0,0-3.887-9.531V49Z" fill="#98b54d"/></svg>