<svg xmlns="http://www.w3.org/2000/svg" width="100" height="100" viewBox="0 0 100 100"><path d="M61.712,0C71,0,77.25,7.017,77.25,13.567c0,4.979-2.446,8.821-4.467,11.433H100V48.367c0,6.208-3.954,9.037-7.633,9.037a9.106,9.106,0,0,1-6.358-2.879c-1.308-1.371-1.842-2.275-3.525-2.275-1.875,0-5.233,2.408-5.233,7.208s3.358,7.208,5.233,7.208c1.671,0,2.221-.908,3.529-2.279a9.09,9.09,0,0,1,6.354-2.879c3.679,0,7.633,2.829,7.633,9.037V100H70.55c-4.058,0-7.233-1.825-8.5-4.879-1.221-2.958-.325-6.45,2.342-9.113,1.362-1.3,2.275-1.858,2.275-3.525,0-1.879-2.408-5.233-7.2-5.233s-7.208,3.354-7.208,5.233c0,1.679.912,2.217,2.279,3.529,2.662,2.658,3.558,6.15,2.337,9.108C55.6,98.175,52.421,100,48.367,100H25V72.783c-3.146,2.371-7.112,4.471-11.433,4.471C7.017,77.25,0,71,0,61.708S7.017,46.167,13.567,46.167c4.321,0,8.287,2.1,11.433,4.471V25H50.633c-2.021-2.612-4.467-6.446-4.467-11.433C46.167,7.017,52.412,0,61.712,0ZM91.667,33.333H72.8c-4.058,0-7.233-1.825-8.5-4.879-1.221-2.958-.325-6.45,2.342-9.112,5.408-5.187.546-11.008-4.929-11.008-5.375,0-10.35,5.821-4.933,11.017,2.662,2.658,3.558,6.15,2.338,9.1-1.263,3.054-4.442,4.879-8.5,4.879H33.333V50.617c0,6.208-3.954,9.037-7.633,9.037a9.106,9.106,0,0,1-6.358-2.879c-5.187-5.408-11.008-.437-11.008,4.933,0,5.129,5.825,10.35,11.012,4.929,3.721-3.721,9.337-3.642,12.121,0A10.05,10.05,0,0,1,33.333,72.8V91.667h15.05c-2.813-2.7-4.467-4.863-4.467-9.183,0-6.55,6.246-13.567,15.542-13.567S75,75.933,75,82.483c0,4.292-1.65,6.508-4.471,9.183H91.667V70.533c-2.7,2.8-4.854,4.467-9.183,4.467-6.55,0-13.567-6.246-13.567-15.542s7.017-15.542,13.567-15.542c4.317,0,6.508,1.663,9.183,4.471V33.333Z" fill="#0a8f72"/></svg>
