<svg xmlns="http://www.w3.org/2000/svg" width="100" height="83.333" viewBox="0 0 100 83.333"><path d="M20.833,10.333H8.333V6.167h12.5Zm45.542,0,3.383,5.079a16.628,16.628,0,0,0,13.867,7.421h8.042V77H8.333V22.833H24.708a16.628,16.628,0,0,0,13.867-7.421l3.383-5.079ZM70.833,2H37.5l-5.858,8.788A8.327,8.327,0,0,1,24.708,14.5H0V85.333H100V14.5H83.625a8.327,8.327,0,0,1-6.933-3.712L70.833,2ZM25,35.333A4.167,4.167,0,1,0,20.833,39.5,4.166,4.166,0,0,0,25,35.333Zm29.167,0a12.5,12.5,0,1,1-12.5,12.5A12.515,12.515,0,0,1,54.167,35.333Zm0-8.333A20.833,20.833,0,1,0,75,47.833,20.836,20.836,0,0,0,54.167,27Z" transform="translate(0 -2)" fill="#98b54d"/></svg>